<?xml version="1.0" encoding="UTF-8"?>
<svg version="1.1" xmlns="http://www.w3.org/2000/svg" width="512" height="512">
<path d="M0 0 C1.01201477 0.00054382 2.02402954 0.00108765 3.06671143 0.00164795 C19.59887291 0.04238923 35.523992 0.95817716 51.75 4.375 C52.78125 4.58930664 53.8125 4.80361328 54.875 5.02441406 C101.10680927 14.94980561 143.72188765 37.60106665 177.75 70.375 C178.7390332 71.32318604 178.7390332 71.32318604 179.74804688 72.29052734 C189.23630305 81.43497479 197.9762044 90.73234009 205.75 101.375 C206.60806152 102.52605017 207.46613451 103.67709177 208.32421875 104.828125 C214.36236829 113.01930614 219.72095521 121.53304105 224.75 130.375 C225.11448242 131.00680176 225.47896484 131.63860352 225.85449219 132.28955078 C240.78473018 158.37464001 250.26385054 187.71085114 254.75 217.375 C254.92660156 218.49745117 255.10320312 219.61990234 255.28515625 220.77636719 C256.9420586 232.38947743 257.14873513 243.90679945 257.125 255.625 C257.12418427 257.14302216 257.12418427 257.14302216 257.12335205 258.69171143 C257.08261077 275.22387291 256.16682284 291.148992 252.75 307.375 C252.42854004 308.921875 252.42854004 308.921875 252.10058594 310.5 C242.17519439 356.73180927 219.52393335 399.34688765 186.75 433.375 C186.11787598 434.03435547 185.48575195 434.69371094 184.83447266 435.37304688 C175.69002521 444.86130305 166.39265991 453.6012044 155.75 461.375 C154.59894983 462.23306152 153.44790823 463.09113451 152.296875 463.94921875 C144.10569386 469.98736829 135.59195895 475.34595521 126.75 480.375 C126.11819824 480.73948242 125.48639648 481.10396484 124.83544922 481.47949219 C98.75035999 496.40973018 69.41414886 505.88885054 39.75 510.375 C38.62754883 510.55160156 37.50509766 510.72820312 36.34863281 510.91015625 C24.73552257 512.5670586 13.21820055 512.77373513 1.5 512.75 C-0.01802216 512.74918427 -0.01802216 512.74918427 -1.56671143 512.74835205 C-18.09887291 512.70761077 -34.023992 511.79182284 -50.25 508.375 C-51.796875 508.05354004 -51.796875 508.05354004 -53.375 507.72558594 C-99.60680927 497.80019439 -142.22188765 475.14893335 -176.25 442.375 C-176.90935547 441.74287598 -177.56871094 441.11075195 -178.24804688 440.45947266 C-187.73630305 431.31502521 -196.4762044 422.01765991 -204.25 411.375 C-205.10806152 410.22394983 -205.96613451 409.07290823 -206.82421875 407.921875 C-212.86236829 399.73069386 -218.22095521 391.21695895 -223.25 382.375 C-223.61448242 381.74319824 -223.97896484 381.11139648 -224.35449219 380.46044922 C-239.28473018 354.37535999 -248.76385054 325.03914886 -253.25 295.375 C-253.51490234 293.69132324 -253.51490234 293.69132324 -253.78515625 291.97363281 C-255.4420586 280.36052257 -255.64873513 268.84320055 -255.625 257.125 C-255.62445618 256.11298523 -255.62391235 255.10097046 -255.62335205 254.05828857 C-255.58261077 237.52612709 -254.66682284 221.601008 -251.25 205.375 C-251.03569336 204.34375 -250.82138672 203.3125 -250.60058594 202.25 C-240.67519439 156.01819073 -218.02393335 113.40311235 -185.25 79.375 C-184.61787598 78.71564453 -183.98575195 78.05628906 -183.33447266 77.37695312 C-174.19002521 67.88869695 -164.89265991 59.1487956 -154.25 51.375 C-153.09894983 50.51693848 -151.94790823 49.65886549 -150.796875 48.80078125 C-142.60569386 42.76263171 -134.09195895 37.40404479 -125.25 32.375 C-124.61819824 32.01051758 -123.98639648 31.64603516 -123.33544922 31.27050781 C-97.25035999 16.34026982 -67.91414886 6.86114946 -38.25 2.375 C-37.12754883 2.19839844 -36.00509766 2.02179687 -34.84863281 1.83984375 C-23.23552257 0.1829414 -11.71820055 -0.02373513 0 0 Z " fill="#AA1122" transform="translate(255.25,-0.375)"/>
<path d="M0 0 C4.11983865 2.93246157 6.62296209 6.7460925 8.7890625 11.2734375 C9.16417969 10.74234375 9.53929687 10.21125 9.92578125 9.6640625 C13.9794141 4.06861967 17.86309114 -0.83766122 24.7890625 -2.7265625 C31.30001237 -3.55136613 36.40714219 -2.55736167 41.7890625 1.2734375 C44.86616832 4.19434506 46.9647405 7.46044016 48.7890625 11.2734375 C49.16417969 10.74234375 49.53929688 10.21125 49.92578125 9.6640625 C53.9794141 4.06861967 57.86309114 -0.83766122 64.7890625 -2.7265625 C71.30001237 -3.55136613 76.40714219 -2.55736167 81.7890625 1.2734375 C84.86616832 4.19434506 86.9647405 7.46044016 88.7890625 11.2734375 C89.16417969 10.74234375 89.53929687 10.21125 89.92578125 9.6640625 C93.9794141 4.06861967 97.86309114 -0.83766122 104.7890625 -2.7265625 C111.30001237 -3.55136613 116.40714219 -2.55736167 121.7890625 1.2734375 C124.86616832 4.19434506 126.9647405 7.46044016 128.7890625 11.2734375 C129.16417969 10.74234375 129.53929687 10.21125 129.92578125 9.6640625 C133.9794141 4.06861967 137.86309114 -0.83766122 144.7890625 -2.7265625 C151.30001237 -3.55136613 156.40714219 -2.55736167 161.7890625 1.2734375 C165.4675401 4.76519035 168.48676252 8.70977659 169.08984375 13.82421875 C169.12168796 21.32883833 168.2005271 26.88208114 162.9765625 32.5859375 C157.85154398 37.27345443 152.28669017 37.78470184 145.54296875 37.65625 C139.89565386 36.87123318 136.24416364 33.80512291 132.4140625 29.7734375 C130.82558561 27.3296269 129.73272439 25.02578468 128.7890625 22.2734375 C128.2321875 23.8203125 128.2321875 23.8203125 127.6640625 25.3984375 C125.42730086 30.57554309 122.1184031 34.08168184 117.1015625 36.6484375 C110.52678462 37.88896163 104.30134449 38.62244343 98.3515625 35.0859375 C93.58638233 31.62655313 90.70521078 27.86220332 88.7890625 22.2734375 C88.2321875 23.8203125 88.2321875 23.8203125 87.6640625 25.3984375 C85.42730086 30.57554309 82.1184031 34.08168184 77.1015625 36.6484375 C70.52678462 37.88896163 64.30134449 38.62244343 58.3515625 35.0859375 C53.58638233 31.62655313 50.70521078 27.86220332 48.7890625 22.2734375 C48.2321875 23.8203125 48.2321875 23.8203125 47.6640625 25.3984375 C45.42730086 30.57554309 42.1184031 34.08168184 37.1015625 36.6484375 C30.52678462 37.88896163 24.30134449 38.62244343 18.3515625 35.0859375 C13.58638233 31.62655313 10.70521078 27.86220332 8.7890625 22.2734375 C8.4178125 23.3046875 8.0465625 24.3359375 7.6640625 25.3984375 C5.30310794 30.86299429 1.93209781 34.40034904 -3.5859375 36.6484375 C-4.4521875 36.8546875 -5.3184375 37.0609375 -6.2109375 37.2734375 C-5.43169922 37.60214844 -5.43169922 37.60214844 -4.63671875 37.9375 C1.82367713 40.87512918 6.01038602 44.55320232 8.7890625 51.2734375 C9.64479599 58.53050203 9.11115856 65.03996996 4.46484375 70.9609375 C1.27141124 74.44772996 -1.51904452 76.15632012 -6.2109375 77.2734375 C-5.69144531 77.49257812 -5.17195313 77.71171875 -4.63671875 77.9375 C2.05496154 80.98029732 5.58451138 84.57563696 8.7890625 91.2734375 C9.16417969 90.74234375 9.53929687 90.21125 9.92578125 89.6640625 C13.99138628 84.05209385 17.85925539 79.20733716 24.7890625 77.2734375 C31.305788 76.62176495 36.19844885 77.79530763 41.7890625 81.2734375 C44.94032904 84.13405324 46.95668173 87.46077079 48.7890625 91.2734375 C49.16417969 90.74234375 49.53929688 90.21125 49.92578125 89.6640625 C53.99138628 84.05209385 57.85925539 79.20733716 64.7890625 77.2734375 C71.305788 76.62176495 76.19844885 77.79530763 81.7890625 81.2734375 C84.94032904 84.13405324 86.95668173 87.46077079 88.7890625 91.2734375 C89.16417969 90.74234375 89.53929687 90.21125 89.92578125 89.6640625 C93.99138628 84.05209385 97.85925539 79.20733716 104.7890625 77.2734375 C111.305788 76.62176495 116.19844885 77.79530763 121.7890625 81.2734375 C125.52514465 84.66492955 128.4919057 88.75339345 129.08984375 93.82421875 C129.12168796 101.32883833 128.2005271 106.88208114 122.9765625 112.5859375 C117.85154398 117.27345443 112.28669017 117.78470184 105.54296875 117.65625 C99.89565386 116.87123318 96.24416364 113.80512291 92.4140625 109.7734375 C90.82558561 107.3296269 89.73272439 105.02578468 88.7890625 102.2734375 C88.2321875 103.8203125 88.2321875 103.8203125 87.6640625 105.3984375 C85.42730086 110.57554309 82.1184031 114.08168184 77.1015625 116.6484375 C70.52678462 117.88896163 64.30134449 118.62244343 58.3515625 115.0859375 C53.58638233 111.62655313 50.70521078 107.86220332 48.7890625 102.2734375 C48.2321875 103.8203125 48.2321875 103.8203125 47.6640625 105.3984375 C45.42730086 110.57554309 42.1184031 114.08168184 37.1015625 116.6484375 C30.52678462 117.88896163 24.30134449 118.62244343 18.3515625 115.0859375 C13.58638233 111.62655313 10.70521078 107.86220332 8.7890625 102.2734375 C8.4178125 103.3046875 8.0465625 104.3359375 7.6640625 105.3984375 C5.30310794 110.86299429 1.93209781 114.40034904 -3.5859375 116.6484375 C-4.8853125 116.9578125 -4.8853125 116.9578125 -6.2109375 117.2734375 C-5.69144531 117.49257813 -5.17195313 117.71171875 -4.63671875 117.9375 C1.82367713 120.87512918 6.01038602 124.55320232 8.7890625 131.2734375 C9.64479599 138.53050203 9.11115856 145.03996996 4.46484375 150.9609375 C1.27141124 154.44772996 -1.51904452 156.15632012 -6.2109375 157.2734375 C-5.69144531 157.49257813 -5.17195313 157.71171875 -4.63671875 157.9375 C1.82367713 160.87512918 6.01038602 164.55320232 8.7890625 171.2734375 C9.64479599 178.53050203 9.11115856 185.03996996 4.46484375 190.9609375 C1.27141124 194.44772996 -1.51904452 196.15632012 -6.2109375 197.2734375 C-5.69144531 197.49257813 -5.17195313 197.71171875 -4.63671875 197.9375 C2.05496154 200.98029732 5.58451138 204.57563696 8.7890625 211.2734375 C9.16417969 210.74234375 9.53929687 210.21125 9.92578125 209.6640625 C13.99138628 204.05209385 17.85925539 199.20733716 24.7890625 197.2734375 C31.305788 196.62176495 36.19844885 197.79530763 41.7890625 201.2734375 C44.94032904 204.13405324 46.95668173 207.46077079 48.7890625 211.2734375 C49.16417969 210.74234375 49.53929688 210.21125 49.92578125 209.6640625 C53.99138628 204.05209385 57.85925539 199.20733716 64.7890625 197.2734375 C71.305788 196.62176495 76.19844885 197.79530763 81.7890625 201.2734375 C84.94032904 204.13405324 86.95668173 207.46077079 88.7890625 211.2734375 C89.16417969 210.74234375 89.53929687 210.21125 89.92578125 209.6640625 C93.99138628 204.05209385 97.85925539 199.20733716 104.7890625 197.2734375 C111.305788 196.62176495 116.19844885 197.79530763 121.7890625 201.2734375 C124.94032904 204.13405324 126.95668173 207.46077079 128.7890625 211.2734375 C129.16417969 210.74234375 129.53929687 210.21125 129.92578125 209.6640625 C133.99138628 204.05209385 137.85925539 199.20733716 144.7890625 197.2734375 C151.305788 196.62176495 156.19844885 197.79530763 161.7890625 201.2734375 C165.52514465 204.66492955 168.4919057 208.75339345 169.08984375 213.82421875 C169.12168796 221.32883833 168.2005271 226.88208114 162.9765625 232.5859375 C157.85154398 237.27345443 152.28669017 237.78470184 145.54296875 237.65625 C139.89565386 236.87123318 136.24416364 233.80512291 132.4140625 229.7734375 C130.82558561 227.3296269 129.73272439 225.02578468 128.7890625 222.2734375 C128.2321875 223.8203125 128.2321875 223.8203125 127.6640625 225.3984375 C125.42730086 230.57554309 122.1184031 234.08168184 117.1015625 236.6484375 C110.52678462 237.88896163 104.30134449 238.62244343 98.3515625 235.0859375 C93.58638233 231.62655313 90.70521078 227.86220332 88.7890625 222.2734375 C88.2321875 223.8203125 88.2321875 223.8203125 87.6640625 225.3984375 C85.42730086 230.57554309 82.1184031 234.08168184 77.1015625 236.6484375 C70.52678462 237.88896163 64.30134449 238.62244343 58.3515625 235.0859375 C53.58638233 231.62655313 50.70521078 227.86220332 48.7890625 222.2734375 C48.2321875 223.8203125 48.2321875 223.8203125 47.6640625 225.3984375 C45.42730086 230.57554309 42.1184031 234.08168184 37.1015625 236.6484375 C30.52678462 237.88896163 24.30134449 238.62244343 18.3515625 235.0859375 C13.58638233 231.62655313 10.70521078 227.86220332 8.7890625 222.2734375 C8.4178125 223.3046875 8.0465625 224.3359375 7.6640625 225.3984375 C5.42730086 230.57554309 2.1184031 234.08168184 -2.8984375 236.6484375 C-9.47321538 237.88896163 -15.69865551 238.62244343 -21.6484375 235.0859375 C-26.74625471 231.37464317 -29.7519073 227.47431586 -31.2109375 221.2734375 C-31.82351493 214.94347068 -30.93018525 210.50633259 -27.2109375 205.2734375 C-24.16466676 202.14408665 -20.83721573 199.69095632 -17.2109375 197.2734375 C-17.74203125 196.97050781 -18.273125 196.66757812 -18.8203125 196.35546875 C-24.20891501 193.15967347 -27.85115039 190.33295849 -30.4609375 184.4609375 C-32.00835185 177.8844265 -31.80189608 173.05542664 -28.5546875 167.1640625 C-25.55684296 162.94616495 -21.47033344 160.11303479 -17.2109375 157.2734375 C-17.74203125 156.97050781 -18.273125 156.66757812 -18.8203125 156.35546875 C-24.20891501 153.15967347 -27.85115039 150.33295849 -30.4609375 144.4609375 C-32.00835185 137.8844265 -31.80189608 133.05542664 -28.5546875 127.1640625 C-25.55684296 122.94616495 -21.47033344 120.11303479 -17.2109375 117.2734375 C-17.74203125 116.97050781 -18.273125 116.66757813 -18.8203125 116.35546875 C-24.20891501 113.15967347 -27.85115039 110.33295849 -30.4609375 104.4609375 C-32.00835185 97.8844265 -31.80189608 93.05542664 -28.5546875 87.1640625 C-25.55684296 82.94616495 -21.47033344 80.11303479 -17.2109375 77.2734375 C-17.74203125 76.97050781 -18.273125 76.66757813 -18.8203125 76.35546875 C-24.20891501 73.15967347 -27.85115039 70.33295849 -30.4609375 64.4609375 C-32.00835185 57.8844265 -31.80189608 53.05542664 -28.5546875 47.1640625 C-25.55684296 42.94616495 -21.47033344 40.11303479 -17.2109375 37.2734375 C-17.74203125 36.97050781 -18.273125 36.66757813 -18.8203125 36.35546875 C-24.20891501 33.15967347 -27.85115039 30.33295849 -30.4609375 24.4609375 C-32.00712413 17.8896443 -31.81158026 13.04516275 -28.546875 7.1640625 C-21.64889184 -2.59799554 -10.60940662 -5.95986587 0 0 Z " fill="#FDFCFC" transform="translate(67.2109375,138.7265625)"/>
<path d="M0 0 C4.30845155 2.68044887 7.1091865 6.60768755 9.046875 11.2734375 C9.90260849 18.53050203 9.36897106 25.03996996 4.72265625 30.9609375 C1.52922374 34.44772996 -1.26123202 36.15632012 -5.953125 37.2734375 C-5.17388672 37.60214844 -5.17388672 37.60214844 -4.37890625 37.9375 C2.08148963 40.87512918 6.26819852 44.55320232 9.046875 51.2734375 C9.90260849 58.53050203 9.36897106 65.03996996 4.72265625 70.9609375 C1.52922374 74.44772996 -1.26123202 76.15632012 -5.953125 77.2734375 C-5.43363281 77.49257813 -4.91414063 77.71171875 -4.37890625 77.9375 C2.08148963 80.87512918 6.26819852 84.55320232 9.046875 91.2734375 C9.90260849 98.53050203 9.36897106 105.03996996 4.72265625 110.9609375 C1.52922374 114.44772996 -1.26123202 116.15632012 -5.953125 117.2734375 C-5.43363281 117.49257813 -4.91414063 117.71171875 -4.37890625 117.9375 C2.08148963 120.87512918 6.26819852 124.55320232 9.046875 131.2734375 C9.90260849 138.53050203 9.36897106 145.03996996 4.72265625 150.9609375 C0.04296808 156.07051828 -4.48523602 157.34283727 -11.328125 157.7109375 C-18.38348798 157.57654963 -22.51641465 154.7742718 -27.328125 149.8359375 C-30.61495337 144.65286199 -31.8603004 139.38251741 -30.953125 133.2734375 C-28.57119852 125.68550404 -23.362924 121.54663683 -16.953125 117.2734375 C-17.48421875 116.97050781 -18.0153125 116.66757812 -18.5625 116.35546875 C-23.95110251 113.15967347 -27.59333789 110.33295849 -30.203125 104.4609375 C-31.75053935 97.8844265 -31.54408358 93.05542664 -28.296875 87.1640625 C-25.29903046 82.94616495 -21.21252094 80.11303479 -16.953125 77.2734375 C-17.48421875 76.97050781 -18.0153125 76.66757813 -18.5625 76.35546875 C-23.95110251 73.15967347 -27.59333789 70.33295849 -30.203125 64.4609375 C-31.75053935 57.8844265 -31.54408358 53.05542664 -28.296875 47.1640625 C-25.29903046 42.94616495 -21.21252094 40.11303479 -16.953125 37.2734375 C-17.48421875 36.97050781 -18.0153125 36.66757813 -18.5625 36.35546875 C-23.95110251 33.15967347 -27.59333789 30.33295849 -30.203125 24.4609375 C-31.74931163 17.8896443 -31.55376776 13.04516275 -28.2890625 7.1640625 C-21.20590289 -2.86005812 -10.90829188 -5.30368674 0 0 Z " fill="#FDFCFC" transform="translate(306.953125,178.7265625)"/>
<path d="M0 0 C4.11983865 2.93246157 6.62296209 6.7460925 8.7890625 11.2734375 C9.16417969 10.74234375 9.53929687 10.21125 9.92578125 9.6640625 C13.9794141 4.06861967 17.86309114 -0.83766122 24.7890625 -2.7265625 C31.30001237 -3.55136613 36.40714219 -2.55736167 41.7890625 1.2734375 C44.86616832 4.19434506 46.9647405 7.46044016 48.7890625 11.2734375 C49.16417969 10.74234375 49.53929687 10.21125 49.92578125 9.6640625 C53.9794141 4.06861967 57.86309114 -0.83766122 64.7890625 -2.7265625 C71.30001237 -3.55136613 76.40714219 -2.55736167 81.7890625 1.2734375 C85.4675401 4.76519035 88.48676252 8.70977659 89.08984375 13.82421875 C89.12168796 21.32883833 88.2005271 26.88208114 82.9765625 32.5859375 C77.85154398 37.27345443 72.28669017 37.78470184 65.54296875 37.65625 C59.89565386 36.87123318 56.24416364 33.80512291 52.4140625 29.7734375 C50.82558561 27.3296269 49.73272439 25.02578468 48.7890625 22.2734375 C48.2321875 23.8203125 48.2321875 23.8203125 47.6640625 25.3984375 C45.42730086 30.57554309 42.1184031 34.08168184 37.1015625 36.6484375 C30.52678462 37.88896163 24.30134449 38.62244343 18.3515625 35.0859375 C13.58638233 31.62655313 10.70521078 27.86220332 8.7890625 22.2734375 C8.4178125 23.3046875 8.0465625 24.3359375 7.6640625 25.3984375 C5.42730086 30.57554309 2.1184031 34.08168184 -2.8984375 36.6484375 C-9.47321538 37.88896163 -15.69865551 38.62244343 -21.6484375 35.0859375 C-26.74625471 31.37464317 -29.7519073 27.47431586 -31.2109375 21.2734375 C-31.82466811 14.93155456 -30.91954931 10.52188228 -27.2109375 5.2734375 C-19.58853218 -2.89084498 -10.09832348 -5.67276339 0 0 Z " fill="#FDFBFC" transform="translate(347.2109375,138.7265625)"/>
<path d="M0 0 C4.42297766 2.75169984 6.81866526 6.63716252 9.046875 11.2734375 C9.42199219 10.74234375 9.79710937 10.21125 10.18359375 9.6640625 C14.24919878 4.05209385 18.11706789 -0.79266284 25.046875 -2.7265625 C31.5636005 -3.37823505 36.45626135 -2.20469237 42.046875 1.2734375 C45.19814154 4.13405324 47.21449423 7.46077079 49.046875 11.2734375 C49.42199219 10.74234375 49.79710937 10.21125 50.18359375 9.6640625 C54.24919878 4.05209385 58.11706789 -0.79266284 65.046875 -2.7265625 C71.5636005 -3.37823505 76.45626135 -2.20469237 82.046875 1.2734375 C85.78295715 4.66492955 88.7497182 8.75339345 89.34765625 13.82421875 C89.37950046 21.32883833 88.4583396 26.88208114 83.234375 32.5859375 C78.10935648 37.27345443 72.54450267 37.78470184 65.80078125 37.65625 C60.15346636 36.87123318 56.50197614 33.80512291 52.671875 29.7734375 C51.08339811 27.3296269 49.99053689 25.02578468 49.046875 22.2734375 C48.49 23.8203125 48.49 23.8203125 47.921875 25.3984375 C45.68511336 30.57554309 42.3762156 34.08168184 37.359375 36.6484375 C30.78459712 37.88896163 24.55915699 38.62244343 18.609375 35.0859375 C13.84419483 31.62655313 10.96302328 27.86220332 9.046875 22.2734375 C8.675625 23.3046875 8.304375 24.3359375 7.921875 25.3984375 C5.68511336 30.57554309 2.3762156 34.08168184 -2.640625 36.6484375 C-9.21540288 37.88896163 -15.44084301 38.62244343 -21.390625 35.0859375 C-26.48844221 31.37464317 -29.4940948 27.47431586 -30.953125 21.2734375 C-31.56685561 14.93155456 -30.66173681 10.52188228 -26.953125 5.2734375 C-19.12706774 -3.10897454 -10.39391947 -5.05359533 0 0 Z " fill="#FDFCFC" transform="translate(346.953125,338.7265625)"/>
<path d="M0 0 C4.30845155 2.68044887 7.1091865 6.60768755 9.046875 11.2734375 C9.90260849 18.53050203 9.36897106 25.03996996 4.72265625 30.9609375 C0.04296808 36.07051828 -4.48523602 37.34283727 -11.328125 37.7109375 C-18.38348798 37.57654963 -22.51641465 34.7742718 -27.328125 29.8359375 C-30.61495337 24.65286199 -31.8603004 19.38251741 -30.953125 13.2734375 C-28.69769239 6.08846655 -23.96369083 1.53580797 -17.515625 -2.1015625 C-10.93870302 -3.70568981 -6.00178002 -2.91810684 0 0 Z " fill="#FDFBFC" transform="translate(466.953125,298.7265625)"/>
<path d="M0 0 C4.30845155 2.68044887 7.1091865 6.60768755 9.046875 11.2734375 C9.90260849 18.53050203 9.36897106 25.03996996 4.72265625 30.9609375 C0.04296808 36.07051828 -4.48523602 37.34283727 -11.328125 37.7109375 C-18.38348798 37.57654963 -22.51641465 34.7742718 -27.328125 29.8359375 C-30.61495337 24.65286199 -31.8603004 19.38251741 -30.953125 13.2734375 C-28.69769239 6.08846655 -23.96369083 1.53580797 -17.515625 -2.1015625 C-10.93870302 -3.70568981 -6.00178002 -2.91810684 0 0 Z " fill="#FDFBFC" transform="translate(466.953125,178.7265625)"/>
</svg>
